<svg width="25" height="25" viewBox="0 0 25 25" fill="none" xmlns="http://www.w3.org/2000/svg">
<path d="M15.05 22.9366H9.05005C3.62005 22.9366 1.30005 20.6166 1.30005 15.1866V9.18665C1.30005 3.75665 3.62005 1.43665 9.05005 1.43665H15.05C20.48 1.43665 22.8 3.75665 22.8 9.18665V15.1866C22.8 20.6166 20.48 22.9366 15.05 22.9366ZM9.05005 2.93665C4.44005 2.93665 2.80005 4.57665 2.80005 9.18665V15.1866C2.80005 19.7966 4.44005 21.4366 9.05005 21.4366H15.05C19.66 21.4366 21.3 19.7966 21.3 15.1866V9.18665C21.3 4.57665 19.66 2.93665 15.05 2.93665H9.05005Z" fill="white"/>
<path d="M7.38002 15.4246C7.22002 15.4246 7.06002 15.3746 6.92002 15.2646C6.84188 15.2049 6.77628 15.1303 6.72695 15.0452C6.67763 14.9601 6.64555 14.8661 6.63255 14.7686C6.61955 14.6711 6.62588 14.572 6.65118 14.477C6.67649 14.3819 6.72027 14.2928 6.78002 14.2146L9.16002 11.1246C9.45002 10.7546 9.86002 10.5146 10.33 10.4546C10.79 10.3946 11.26 10.5246 11.63 10.8146L13.46 12.2546C13.53 12.3146 13.6 12.3146 13.65 12.3046C13.69 12.3046 13.76 12.2846 13.82 12.2046L16.13 9.22464C16.1898 9.14625 16.2645 9.08059 16.35 9.0315C16.4355 8.98241 16.5299 8.95088 16.6277 8.93877C16.7255 8.92666 16.8247 8.93421 16.9196 8.96098C17.0144 8.98775 17.103 9.03319 17.18 9.09464C17.51 9.34464 17.57 9.81464 17.31 10.1446L15 13.1246C14.71 13.4946 14.3 13.7346 13.83 13.7846C13.36 13.8446 12.9 13.7146 12.53 13.4246L10.7 11.9846C10.6744 11.9622 10.6439 11.9459 10.6109 11.9373C10.5779 11.9286 10.5434 11.9277 10.51 11.9346C10.47 11.9346 10.4 11.9546 10.34 12.0346L7.96002 15.1246C7.83002 15.3246 7.61002 15.4246 7.38002 15.4246Z" fill="white"/>
</svg>
