<svg width="25" height="25" viewBox="0 0 25 25" fill="none" xmlns="http://www.w3.org/2000/svg">
<path d="M15.05 23.6923H9.05005C3.62005 23.6923 1.30005 21.3723 1.30005 15.9423V9.94226C1.30005 4.51226 3.62005 2.19226 9.05005 2.19226H15.05C20.48 2.19226 22.8 4.51226 22.8 9.94226V15.9423C22.8 21.3723 20.48 23.6923 15.05 23.6923ZM9.05005 3.69226C4.44005 3.69226 2.80005 5.33226 2.80005 9.94226V15.9423C2.80005 20.5523 4.44005 22.1923 9.05005 22.1923H15.05C19.66 22.1923 21.3 20.5523 21.3 15.9423V9.94226C21.3 5.33226 19.66 3.69226 15.05 3.69226H9.05005Z" fill="#C2C0FF"/>
<path d="M18.7805 9.15806C18.5976 8.36538 17.378 7.75563 15.7927 7.75563C14.0854 7.75563 12.8049 8.42636 12.7439 9.34099V16.2312C12.7439 16.2922 12.7439 16.3532 12.8049 16.4141C13.0488 17.2068 14.2683 17.7556 15.7927 17.7556C17.2561 17.7556 18.4146 17.2678 18.7195 16.5361C18.7805 16.4751 18.8415 16.4142 18.8415 16.2922V9.34099C18.9024 9.28001 18.8415 9.21904 18.7805 9.15806ZM15.7927 8.36538C17.1951 8.36538 18.2317 8.91416 18.2317 9.34099C18.2317 9.82879 17.1951 10.3166 15.7927 10.3166C14.3902 10.3166 13.3536 9.76782 13.3536 9.34099C13.4146 8.91416 14.4512 8.36538 15.7927 8.36538ZM13.4146 10.3166C13.9634 10.6824 14.8171 10.9263 15.8537 10.9263C16.8902 10.9263 17.7439 10.6824 18.2927 10.2556V11.1093H18.2317C18.2317 11.5971 17.1951 12.0849 15.7927 12.0849C14.3902 12.0849 13.3536 11.5361 13.3536 11.1093V10.3166H13.4146ZM13.4146 12.0849C13.9634 12.4507 14.8171 12.6946 15.8537 12.6946C16.8902 12.6946 17.7439 12.4507 18.2927 12.0239V12.6337H18.2317C18.2317 13.1215 17.1951 13.6093 15.7927 13.6093C14.3902 13.6093 13.3536 13.0605 13.3536 12.6337V12.0849L13.4146 12.0849ZM13.4146 13.6702C13.9634 14.0361 14.8171 14.28 15.8537 14.28C16.8902 14.28 17.7439 14.0361 18.2927 13.6093V14.402H18.2317C18.2317 14.8898 17.1951 15.3776 15.7927 15.3776C14.3902 15.3776 13.3536 14.8288 13.3536 14.402V13.6703L13.4146 13.6702ZM15.7927 17.1459C14.3902 17.1459 13.3536 16.5971 13.3536 16.1702V15.3776C13.9024 15.7434 14.7561 15.9873 15.7927 15.9873C16.8293 15.9873 17.6829 15.7434 18.2317 15.3166V16.1093H18.1707C18.2317 16.5971 17.1951 17.1459 15.7927 17.1459ZM6.40245 9.88977H5.60976C5.30489 9.88977 5 10.1337 5 10.4995V17.2678C5 17.5117 5.18293 17.6946 5.42683 17.6946H6.52439C6.7683 17.6946 6.95123 17.5117 6.95123 17.2678V10.4995C7.01221 10.1947 6.70732 9.88977 6.40245 9.88977ZM6.40245 17.0849H5.60976V10.4995H6.40245V17.0849ZM9.02439 7.75562H8.17073C7.86586 7.75562 7.56097 7.99952 7.56097 8.36538V17.3288C7.56097 17.5727 7.7439 17.7556 7.98781 17.7556H9.08537C9.32927 17.7556 9.5122 17.5727 9.5122 17.3288V8.36538C9.57318 7.99952 9.32926 7.75562 9.02439 7.75562ZM8.96342 17.1459H8.23171V8.36538H9.0244V17.1459H8.96342ZM11.5854 12.2068H10.7927C10.4878 12.2068 10.1829 12.4507 10.1829 12.8166V17.2068C10.1829 17.4507 10.3658 17.6337 10.6097 17.6337H11.7073C11.9512 17.6337 12.1341 17.4507 12.1341 17.2068V12.7556C12.1951 12.5117 11.9512 12.2068 11.5854 12.2068ZM11.5854 17.0849H10.7927V12.8776H11.5854V17.0849Z" fill="#C2C0FF"/>
</svg>
