<svg width="316" height="79" viewBox="0 0 316 79" fill="none" xmlns="http://www.w3.org/2000/svg">
<path d="M16.7876 59.3719C14.0605 59.3719 11.6167 58.9292 9.45631 58.0437C7.29588 57.1583 5.56045 55.8479 4.25003 54.1125C2.97502 52.377 2.3021 50.2874 2.23126 47.8437H11.9001C12.0417 49.2249 12.5199 50.2874 13.3345 51.0312C14.1491 51.7395 15.2116 52.0937 16.522 52.0937C17.8678 52.0937 18.9303 51.7927 19.7095 51.1906C20.4887 50.5531 20.8783 49.6854 20.8783 48.5874C20.8783 47.6666 20.5595 46.9051 19.922 46.303C19.3199 45.701 18.5585 45.2051 17.6376 44.8155C16.7522 44.4259 15.4772 43.9832 13.8126 43.4874C11.4042 42.7436 9.4386 41.9999 7.91568 41.2561C6.39275 40.5124 5.08233 39.4145 3.9844 37.9624C2.88648 36.5103 2.33752 34.6155 2.33752 32.2779C2.33752 28.8071 3.59482 26.0977 6.10942 24.1498C8.62402 22.1664 11.9001 21.1747 15.9376 21.1747C20.046 21.1747 23.3574 22.1664 25.872 24.1498C28.3866 26.0977 29.7325 28.8248 29.9096 32.3311H20.0814C20.0105 31.1269 19.5678 30.1884 18.7532 29.5154C17.9387 28.8071 16.8939 28.4529 15.6189 28.4529C14.5209 28.4529 13.6355 28.754 12.9626 29.3561C12.2897 29.9227 11.9532 30.755 11.9532 31.8529C11.9532 33.0571 12.5199 33.9957 13.6532 34.6686C14.7866 35.3415 16.5574 36.0676 18.9658 36.8467C21.3741 37.6613 23.322 38.4405 24.8095 39.1842C26.3325 39.928 27.6429 41.0082 28.7408 42.4249C29.8387 43.8416 30.3877 45.6655 30.3877 47.8968C30.3877 50.0218 29.8387 51.952 28.7408 53.6875C27.6783 55.4229 26.12 56.8042 24.0658 57.8312C22.0116 58.8583 19.5855 59.3719 16.7876 59.3719ZM45.0628 33.553C45.9482 32.1717 47.1701 31.0561 48.7284 30.2061C50.2867 29.3561 52.1107 28.931 54.2003 28.931C56.6441 28.931 58.8576 29.5508 60.841 30.7904C62.8243 32.03 64.3827 33.8009 65.516 36.103C66.6848 38.4051 67.2691 41.079 67.2691 44.1249C67.2691 47.1708 66.6848 49.8624 65.516 52.2C64.3827 54.5021 62.8243 56.2906 60.841 57.5656C58.8576 58.8052 56.6441 59.425 54.2003 59.425C52.1461 59.425 50.3222 59 48.7284 58.15C47.1701 57.3 45.9482 56.2021 45.0628 54.8562V73.1313H35.9783V29.3561H45.0628V33.553ZM58.0253 44.1249C58.0253 41.8582 57.3878 40.0874 56.1128 38.8124C54.8732 37.5019 53.3326 36.8467 51.4909 36.8467C49.6847 36.8467 48.144 37.5019 46.869 38.8124C45.6294 40.1228 45.0096 41.9113 45.0096 44.178C45.0096 46.4447 45.6294 48.2333 46.869 49.5437C48.144 50.8541 49.6847 51.5093 51.4909 51.5093C53.2972 51.5093 54.8378 50.8541 56.1128 49.5437C57.3878 48.1978 58.0253 46.3916 58.0253 44.1249ZM70.2288 44.1249C70.2288 41.079 70.7955 38.4051 71.9288 36.103C73.0976 33.8009 74.6736 32.03 76.657 30.7904C78.6403 29.5508 80.8539 28.931 83.2976 28.931C85.3872 28.931 87.2112 29.3561 88.7696 30.2061C90.3633 31.0561 91.5852 32.1717 92.4352 33.553V29.3561H101.52V59H92.4352V54.8031C91.5498 56.1844 90.3102 57.3 88.7164 58.15C87.1581 59 85.3341 59.425 83.2445 59.425C80.8362 59.425 78.6403 58.8052 76.657 57.5656C74.6736 56.2906 73.0976 54.5021 71.9288 52.2C70.7955 49.8624 70.2288 47.1708 70.2288 44.1249ZM92.4352 44.178C92.4352 41.9113 91.7977 40.1228 90.5227 38.8124C89.2831 37.5019 87.7602 36.8467 85.9539 36.8467C84.1477 36.8467 82.607 37.5019 81.332 38.8124C80.0924 40.0874 79.4726 41.8582 79.4726 44.1249C79.4726 46.3916 80.0924 48.1978 81.332 49.5437C82.607 50.8541 84.1477 51.5093 85.9539 51.5093C87.7602 51.5093 89.2831 50.8541 90.5227 49.5437C91.7977 48.2333 92.4352 46.4447 92.4352 44.178ZM117.176 34.2967C118.239 32.6675 119.567 31.3925 121.161 30.4717C122.754 29.5154 124.525 29.0373 126.473 29.0373V38.653H123.976C121.71 38.653 120.01 39.1488 118.876 40.1405C117.743 41.0968 117.176 42.7968 117.176 45.2405V59H108.092V29.3561H117.176V34.2967ZM158.759 43.6999C158.759 44.5499 158.706 45.4353 158.6 46.3562H138.04C138.182 48.1978 138.766 49.6145 139.794 50.6062C140.856 51.5625 142.149 52.0406 143.672 52.0406C145.938 52.0406 147.514 51.0843 148.4 49.1718H158.069C157.573 51.1197 156.67 52.8729 155.359 54.4312C154.084 55.9896 152.473 57.2114 150.525 58.0969C148.577 58.9823 146.399 59.425 143.99 59.425C141.086 59.425 138.501 58.8052 136.234 57.5656C133.967 56.326 132.197 54.5552 130.922 52.2531C129.647 49.951 129.009 47.2593 129.009 44.178C129.009 41.0968 129.629 38.4051 130.868 36.103C132.143 33.8009 133.914 32.03 136.181 30.7904C138.448 29.5508 141.051 28.931 143.99 28.931C146.859 28.931 149.409 29.5331 151.641 30.7373C153.872 31.9415 155.607 33.6592 156.847 35.8905C158.122 38.1217 158.759 40.7249 158.759 43.6999ZM149.462 41.3093C149.462 39.7509 148.931 38.5113 147.869 37.5905C146.806 36.6696 145.478 36.2092 143.884 36.2092C142.361 36.2092 141.069 36.6519 140.006 37.5374C138.979 38.4228 138.341 39.6801 138.094 41.3093H149.462ZM190.38 21.706V28.9842H180.499V59H171.414V28.9842H161.533V21.706H190.38ZM199.508 26.2748C197.914 26.2748 196.604 25.8144 195.577 24.8935C194.585 23.9373 194.089 22.7685 194.089 21.3873C194.089 19.9706 194.585 18.8018 195.577 17.881C196.604 16.9247 197.914 16.4466 199.508 16.4466C201.066 16.4466 202.341 16.9247 203.333 17.881C204.36 18.8018 204.874 19.9706 204.874 21.3873C204.874 22.7685 204.36 23.9373 203.333 24.8935C202.341 25.8144 201.066 26.2748 199.508 26.2748ZM204.024 29.3561V59H194.939V29.3561H204.024ZM248.432 29.0373C252.116 29.0373 255.038 30.1529 257.198 32.3842C259.394 34.6155 260.492 37.7144 260.492 41.6811V59H251.461V42.903C251.461 40.9905 250.947 39.5207 249.92 38.4936C248.928 37.4311 247.547 36.8999 245.776 36.8999C244.005 36.8999 242.606 37.4311 241.579 38.4936C240.588 39.5207 240.092 40.9905 240.092 42.903V59H231.06V42.903C231.06 40.9905 230.547 39.5207 229.52 38.4936C228.528 37.4311 227.147 36.8999 225.376 36.8999C223.605 36.8999 222.206 37.4311 221.179 38.4936C220.187 39.5207 219.692 40.9905 219.692 42.903V59H210.607V29.3561H219.692V33.0748C220.612 31.8352 221.817 30.8613 223.304 30.1529C224.792 29.4092 226.474 29.0373 228.351 29.0373C230.582 29.0373 232.566 29.5154 234.301 30.4717C236.072 31.4279 237.453 32.7915 238.445 34.5623C239.472 32.9332 240.871 31.605 242.642 30.5779C244.413 29.5508 246.343 29.0373 248.432 29.0373ZM294.789 43.6999C294.789 44.5499 294.736 45.4353 294.63 46.3562H274.07C274.212 48.1978 274.796 49.6145 275.824 50.6062C276.886 51.5625 278.179 52.0406 279.702 52.0406C281.968 52.0406 283.544 51.0843 284.43 49.1718H294.099C293.603 51.1197 292.7 52.8729 291.389 54.4312C290.114 55.9896 288.503 57.2114 286.555 58.0969C284.607 58.9823 282.429 59.425 280.02 59.425C277.116 59.425 274.531 58.8052 272.264 57.5656C269.997 56.326 268.227 54.5552 266.952 52.2531C265.677 49.951 265.039 47.2593 265.039 44.178C265.039 41.0968 265.659 38.4051 266.898 36.103C268.173 33.8009 269.944 32.03 272.211 30.7904C274.478 29.5508 277.081 28.931 280.02 28.931C282.889 28.931 285.439 29.5331 287.67 30.7373C289.902 31.9415 291.637 33.6592 292.877 35.8905C294.152 38.1217 294.789 40.7249 294.789 43.6999ZM285.492 41.3093C285.492 39.7509 284.961 38.5113 283.899 37.5905C282.836 36.6696 281.508 36.2092 279.914 36.2092C278.391 36.2092 277.099 36.6519 276.036 37.5374C275.009 38.4228 274.371 39.6801 274.123 41.3093H285.492Z" fill="white"/>
<path d="M302.14 9.34374C302.19 8.88542 302.81 8.88542 302.86 9.34374L303.285 13.1886C303.833 18.1534 307.478 22.0677 312.1 22.6568L315.68 23.113C316.107 23.1675 316.107 23.8325 315.68 23.887L312.1 24.3432C307.478 24.9323 303.833 28.8466 303.285 33.8113L302.86 37.6562C302.81 38.1146 302.19 38.1146 302.14 37.6562L301.715 33.8113C301.167 28.8466 297.522 24.9323 292.9 24.3432L289.32 23.887C288.893 23.8325 288.893 23.1675 289.32 23.113L292.9 22.6568C297.522 22.0677 301.167 18.1534 301.715 13.1886L302.14 9.34374Z" fill="white"/>
</svg>
