<svg width="22" height="22" viewBox="0 0 22 22" fill="none" xmlns="http://www.w3.org/2000/svg">
<path d="M17.05 7.09868H16.92C15.03 7.03868 13.62 5.57868 13.62 3.77868C13.62 1.93868 15.12 0.448676 16.95 0.448676C18.78 0.448676 20.28 1.94868 20.28 3.77868C20.2812 4.64334 19.9458 5.47452 19.3447 6.09611C18.7437 6.7177 17.9242 7.08087 17.06 7.10868C17.06 7.09868 17.06 7.09868 17.05 7.09868ZM16.95 1.93868C15.94 1.93868 15.12 2.75868 15.12 3.76868C15.12 4.75868 15.89 5.55868 16.88 5.59868C16.89 5.58868 16.97 5.58868 17.06 5.59868C17.5335 5.56745 17.9764 5.35373 18.2955 5.00249C18.6146 4.65126 18.7849 4.18992 18.7706 3.71561C18.7564 3.2413 18.5586 2.79103 18.2191 2.45959C17.8795 2.12815 17.4245 1.94141 16.95 1.93868ZM17.059 14.4667C16.669 14.4667 16.279 14.4367 15.889 14.3667C15.7917 14.3498 15.6988 14.3138 15.6154 14.2609C15.5321 14.208 15.46 14.1392 15.4034 14.0583C15.3467 13.9775 15.3065 13.8863 15.2852 13.7899C15.2639 13.6935 15.2618 13.5939 15.279 13.4967C15.2959 13.3994 15.3319 13.3065 15.3848 13.2231C15.4377 13.1398 15.5065 13.0677 15.5874 13.011C15.6682 12.9544 15.7594 12.9142 15.8558 12.8929C15.9522 12.8715 16.0518 12.8694 16.149 12.8867C17.379 13.0967 18.679 12.8667 19.549 12.2867C20.019 11.9767 20.269 11.5867 20.269 11.1967C20.269 10.8067 20.009 10.4267 19.549 10.1167C18.679 9.53668 17.359 9.30668 16.119 9.52668C15.709 9.60668 15.319 9.32668 15.249 8.91668C15.179 8.50668 15.449 8.11668 15.859 8.04668C17.489 7.75668 19.179 8.06668 20.379 8.86668C21.259 9.45668 21.769 10.2967 21.769 11.1967C21.769 12.0867 21.269 12.9367 20.379 13.5367C19.469 14.1367 18.289 14.4667 17.059 14.4667ZM5.02 7.09668H5C4.13726 7.06967 3.31886 6.70812 2.71792 6.08852C2.11697 5.46891 1.78062 4.63984 1.78 3.77668C1.78 1.93668 3.28 0.436676 5.11 0.436676C6.94 0.436676 8.44 1.93668 8.44 3.76668C8.44 5.57668 7.03 7.03668 5.23 7.09668L5.02 6.34668L5.09 7.09668H5.02ZM5.12 5.59668C5.18 5.59668 5.23 5.59668 5.29 5.60668C6.18 5.56668 6.96 4.76668 6.96 3.77668C6.95947 3.41911 6.8542 3.06954 6.65719 2.77114C6.46018 2.47274 6.18008 2.2386 5.85147 2.09763C5.52287 1.95666 5.16017 1.91505 4.80818 1.97793C4.45619 2.04081 4.13033 2.20544 3.87086 2.45146C3.61139 2.69748 3.42968 3.01413 3.34818 3.36228C3.26668 3.71043 3.28895 4.07484 3.41225 4.41047C3.53556 4.7461 3.75448 5.03825 4.04199 5.25084C4.32949 5.46343 4.67297 5.58714 5.03 5.60668C5.04 5.59668 5.08 5.59668 5.12 5.59668ZM5.01 14.4667C3.78 14.4667 2.6 14.1367 1.69 13.5367C0.810003 12.9467 0.300003 12.0967 0.300003 11.1967C0.300003 10.3067 0.810003 9.45668 1.69 8.86668C2.89 8.06668 4.58 7.75668 6.21 8.04668C6.62 8.11668 6.89 8.50668 6.82 8.91668C6.75 9.32668 6.36 9.60668 5.95 9.52668C4.71 9.30668 3.4 9.53668 2.52 10.1167C2.05 10.4267 1.8 10.8067 1.8 11.1967C1.8 11.5867 2.06 11.9767 2.52 12.2867C3.39 12.8667 4.69 13.0967 5.92 12.8867C6.33 12.8167 6.72 13.0967 6.79 13.4967C6.86 13.9067 6.59 14.2967 6.18 14.3667C5.79 14.4367 5.4 14.4667 5.01 14.4667ZM11.05 14.5667H10.92C9.03 14.5067 7.62 13.0467 7.62 11.2467C7.62 9.40668 9.12 7.91668 10.95 7.91668C12.78 7.91668 14.28 9.41668 14.28 11.2467C14.2812 12.1113 13.9458 12.9425 13.3447 13.5641C12.7437 14.1857 11.9242 14.5489 11.06 14.5767C11.06 14.5667 11.06 14.5667 11.05 14.5667ZM10.95 9.40668C9.94 9.40668 9.12 10.2267 9.12 11.2367C9.12 12.2267 9.89 13.0267 10.88 13.0667C10.89 13.0567 10.97 13.0567 11.06 13.0667C12.03 13.0167 12.78 12.2167 12.79 11.2367C12.79 10.2367 11.97 9.40668 10.95 9.40668ZM11.051 21.9457C9.851 21.9457 8.651 21.6357 7.721 21.0057C6.841 20.4157 6.331 19.5757 6.331 18.6757C6.331 17.7857 6.831 16.9257 7.721 16.3357C9.591 15.0957 12.521 15.0957 14.381 16.3357C15.261 16.9257 15.771 17.7657 15.771 18.6657C15.771 19.5557 15.271 20.4157 14.381 21.0057C13.451 21.6257 12.251 21.9457 11.051 21.9457ZM8.551 17.5957C8.081 17.9057 7.831 18.2957 7.831 18.6857C7.831 19.0757 8.091 19.4557 8.551 19.7657C9.901 20.6757 12.191 20.6757 13.541 19.7657C14.011 19.4557 14.261 19.0657 14.261 18.6757C14.261 18.2857 14.001 17.9057 13.541 17.5957C12.201 16.6857 9.911 16.6957 8.551 17.5957Z" fill="#C2C0FF"/>
</svg>
