<svg width="25" height="25" viewBox="0 0 25 25" fill="none" xmlns="http://www.w3.org/2000/svg">
<path d="M15.05 22.8055H9.05005C3.62005 22.8055 1.30005 20.4855 1.30005 15.0555V9.05554C1.30005 3.62554 3.62005 1.30554 9.05005 1.30554H15.05C20.48 1.30554 22.8 3.62554 22.8 9.05554V15.0555C22.8 20.4855 20.48 22.8055 15.05 22.8055ZM9.05005 2.80554C4.44005 2.80554 2.80005 4.44554 2.80005 9.05554V15.0555C2.80005 19.6655 4.44005 21.3055 9.05005 21.3055H15.05C19.66 21.3055 21.3 19.6655 21.3 15.0555V9.05554C21.3 4.44554 19.66 2.80554 15.05 2.80554H9.05005Z" fill="#C2C0FF"/>
<path d="M15.63 19.3075C15.22 19.3075 14.88 18.9675 14.88 18.5575V14.6575C14.88 14.2475 15.22 13.9075 15.63 13.9075C16.04 13.9075 16.38 14.2475 16.38 14.6575V18.5575C16.38 18.9675 16.04 19.3075 15.63 19.3075ZM15.63 8.25554C15.22 8.25554 14.88 7.91554 14.88 7.50554V5.55554C14.88 5.14554 15.22 4.80554 15.63 4.80554C16.04 4.80554 16.38 5.14554 16.38 5.55554V7.50554C16.38 7.91554 16.04 8.25554 15.63 8.25554Z" fill="#C2C0FF"/>
<path d="M15.6301 13.4555C14.9675 13.4555 14.3198 13.2591 13.7689 12.891C13.218 12.5229 12.7886 11.9997 12.5351 11.3875C12.2815 10.7754 12.2152 10.1018 12.3445 9.45199C12.4737 8.80215 12.7928 8.20524 13.2613 7.73673C13.7298 7.26823 14.3267 6.94917 14.9765 6.81991C15.6264 6.69065 16.3 6.75699 16.9121 7.01055C17.5242 7.2641 18.0474 7.69348 18.4155 8.24438C18.7836 8.79529 18.9801 9.44297 18.9801 10.1055C18.9801 11.9555 17.4701 13.4555 15.6301 13.4555ZM15.6301 8.25554C14.6101 8.25554 13.7801 9.08554 13.7801 10.1055C13.7801 11.1255 14.6101 11.9555 15.6301 11.9555C16.6501 11.9555 17.4801 11.1255 17.4801 10.1055C17.4801 9.08554 16.6401 8.25554 15.6301 8.25554ZM8.47009 19.3055C8.06009 19.3055 7.72009 18.9655 7.72009 18.5555V16.6055C7.72009 16.1955 8.06009 15.8555 8.47009 15.8555C8.88009 15.8555 9.22009 16.1955 9.22009 16.6055V18.5555C9.22009 18.9655 8.89009 19.3055 8.47009 19.3055ZM8.47009 10.2055C8.06009 10.2055 7.72009 9.86554 7.72009 9.45554V5.55554C7.72009 5.14554 8.06009 4.80554 8.47009 4.80554C8.88009 4.80554 9.22009 5.14554 9.22009 5.55554V9.45554C9.22009 9.86554 8.89009 10.2055 8.47009 10.2055Z" fill="#C2C0FF"/>
<path d="M8.47 17.3575C8.03007 17.3575 7.59445 17.2709 7.18801 17.1025C6.78157 16.9342 6.41226 16.6874 6.10119 16.3763C5.79011 16.0653 5.54335 15.696 5.375 15.2895C5.20665 14.8831 5.12 14.4475 5.12 14.0075C5.12 13.5676 5.20665 13.132 5.375 12.7255C5.54335 12.3191 5.79011 11.9498 6.10119 11.6387C6.41226 11.3276 6.78157 11.0809 7.18801 10.9125C7.59445 10.7442 8.03007 10.6575 8.47 10.6575C9.35847 10.6575 10.2106 11.0105 10.8388 11.6387C11.4671 12.267 11.82 13.1191 11.82 14.0075C11.82 14.896 11.4671 15.7481 10.8388 16.3763C10.2106 17.0046 9.35847 17.3575 8.47 17.3575ZM8.47 12.1575C7.45 12.1575 6.62 12.9875 6.62 14.0075C6.62 15.0275 7.45 15.8575 8.47 15.8575C9.49 15.8575 10.32 15.0275 10.32 14.0075C10.32 12.9875 9.5 12.1575 8.47 12.1575Z" fill="#C2C0FF"/>
</svg>
