<svg width="27" height="29" viewBox="0 0 27 29" fill="none" xmlns="http://www.w3.org/2000/svg">
<path d="M13.1397 0.343739C13.1904 -0.11458 13.8096 -0.11458 13.8603 0.343739L14.285 4.18862C14.8335 9.1534 18.4779 13.0677 23.1002 13.6568L26.6799 14.113C27.1067 14.1675 27.1067 14.8325 26.6799 14.887L23.1002 15.3432C18.4779 15.9323 14.8335 19.8466 14.285 24.8113L13.8603 28.6562C13.8096 29.1146 13.1904 29.1146 13.1397 28.6562L12.715 24.8113C12.1665 19.8466 8.52213 15.9323 3.89975 15.3432L0.320033 14.887C-0.106678 14.8325 -0.106678 14.1675 0.320033 14.113L3.89975 13.6568C8.52213 13.0677 12.1665 9.1534 12.715 4.18862L13.1397 0.343739Z" fill="white"/>
</svg>
